<?xml version="1.0" encoding="UTF-8"?><svg id="a" xmlns="http://www.w3.org/2000/svg" width="2.286in" height="1.35in" viewBox="0 0 164.564 97.17"><path d="M161.075,3.658v89.911H3.818V3.658h157.257M164.575.158H.318v96.911h164.257V.158h0Z" fill="#f79320"/><rect x="105.449" y="34.927" width="27.127" height="11.679" fill="#fff"/><path d="M132.576,46.606h-27.127v-11.679h27.127v11.679ZM133.96,47.992h-29.894v-14.448h29.894v14.448" fill="#221f1f" fill-rule="evenodd"/><path d="M103.797,18.56c0,2.322-1.882,4.2-4.205,4.2s-4.201-1.878-4.201-4.2,1.881-4.203,4.201-4.203,4.205,1.882,4.205,4.203Z" fill="#221f1f" fill-rule="evenodd"/><path d="M92.54,23.863c.961-1.682,3.333-2.545,4.712-1.52l3.589,2.443,3.225,7.833,6.272,5.903c.82.821.82,2.149,0,2.967-.819.822-2.148.822-2.972,0l-7.911-6.563-.923-3.227-2.763,5.994,6.916,8.755c.992,1.255.723,3.058.458,3.694l-4.768,12c-.53,1.275-1.999,1.881-3.276,1.348-1.277-.533-1.883-1.996-1.348-3.275l3.775-9.809c.268-.718-.133-1.781-.637-2.342l-8.498-9.909c-1.262-1.263-1.404-3.269-.505-5.069l4.653-9.225" fill="#221f1f" fill-rule="evenodd"/><path d="M134.231,18.56c0,2.322,1.881,4.2,4.201,4.2s4.203-1.878,4.203-4.2-1.884-4.203-4.203-4.203-4.201,1.882-4.201,4.203Z" fill="#221f1f" fill-rule="evenodd"/><path d="M145.489,23.863c-.962-1.682-3.333-2.545-4.715-1.52l-3.589,2.443-3.225,7.833-6.274,5.903c-.819.821-.819,2.149,0,2.967.821.822,2.153.822,2.972,0l7.914-6.563.922-3.227,2.765,5.994-6.914,8.755c-.993,1.255-.725,3.058-.463,3.694l4.77,12c.531,1.275,1.999,1.881,3.278,1.348,1.276-.533,1.88-1.996,1.348-3.275l-3.772-9.809c-.273-.718.129-1.781.628-2.342l8.502-9.909c1.263-1.263,1.406-3.269.507-5.069l-4.653-9.225" fill="#221f1f" fill-rule="evenodd"/><path d="M20.727,83.802v.761h-4.258c-.006-.19.025-.374.092-.55.108-.29.282-.575.521-.856.238-.281.583-.606,1.035-.976.7-.574,1.173-1.029,1.419-1.365.246-.335.369-.652.369-.951,0-.313-.112-.578-.336-.793-.225-.216-.517-.323-.877-.323-.381,0-.686.114-.914.343s-.344.545-.347.949l-.813-.083c.056-.607.265-1.069.628-1.387.363-.318.851-.478,1.463-.478.618,0,1.107.172,1.468.515s.541.768.541,1.274c0,.258-.053.512-.158.761s-.281.511-.525.786c-.245.275-.651.653-1.22,1.134-.475.398-.779.669-.914.812-.135.142-.246.284-.334.428h3.16Z" fill="#231f20"/><path d="M21.604,83.073l.76-.07c.064.357.188.617.369.778s.415.241.699.241c.243,0,.456-.056.64-.167.183-.111.333-.26.45-.445.117-.187.215-.438.294-.754s.119-.639.119-.967c0-.035-.001-.088-.004-.158-.158.252-.375.456-.648.613-.274.156-.571.234-.89.234-.533,0-.984-.193-1.354-.58s-.554-.896-.554-1.529c0-.653.192-1.18.578-1.578s.868-.598,1.448-.598c.419,0,.802.113,1.149.339.347.226.61.547.791.965.18.417.27,1.021.27,1.812,0,.823-.089,1.479-.268,1.967-.179.488-.445.859-.798,1.114s-.767.383-1.241.383c-.504,0-.916-.141-1.235-.42-.319-.28-.511-.674-.576-1.181ZM24.843,80.23c0-.454-.121-.815-.363-1.082-.241-.267-.532-.399-.872-.399-.352,0-.658.144-.918.431s-.391.659-.391,1.116c0,.41.124.743.371,1,.248.256.553.385.917.385.366,0,.667-.129.903-.385.236-.257.354-.611.354-1.065Z" fill="#231f20"/><path d="M26.844,84.563v-.901h.901v.901h-.901Z" fill="#231f20"/><path d="M28.811,81.386c0-.762.078-1.375.235-1.839.157-.465.39-.823.699-1.075.309-.252.698-.378,1.167-.378.346,0,.649.07.91.209.261.14.476.34.646.603.17.262.303.581.4.958.097.376.145.884.145,1.522,0,.756-.078,1.366-.233,1.831-.155.464-.388.823-.696,1.076-.31.254-.7.381-1.171.381-.621,0-1.109-.223-1.463-.669-.425-.536-.637-1.409-.637-2.619ZM29.624,81.386c0,1.058.124,1.762.371,2.112.248.35.553.524.917.524s.668-.176.917-.527c.247-.352.371-1.055.371-2.109,0-1.061-.124-1.765-.371-2.114-.248-.349-.556-.522-.925-.522-.363,0-.653.153-.87.461-.272.394-.409,1.118-.409,2.176Z" fill="#231f20"/><path d="M33.731,82.862l.791-.105c.091.448.245.771.464.97.218.197.484.296.797.296.372,0,.686-.129.943-.387.256-.258.384-.577.384-.958,0-.363-.119-.662-.356-.898s-.539-.354-.905-.354c-.149,0-.335.029-.558.088l.088-.694c.053.006.095.009.127.009.337,0,.64-.088.91-.264s.404-.447.404-.813c0-.29-.098-.53-.294-.721s-.45-.286-.76-.286c-.308,0-.564.097-.769.29s-.337.483-.396.871l-.791-.141c.097-.53.316-.941.659-1.233.343-.291.769-.438,1.279-.438.352,0,.675.076.971.227.296.151.522.356.679.617s.235.538.235.831c0,.278-.075.532-.224.761s-.371.41-.664.545c.381.088.677.27.888.547.211.276.316.623.316,1.039,0,.562-.205,1.04-.615,1.431-.41.392-.929.587-1.556.587-.565,0-1.035-.168-1.408-.506-.374-.337-.587-.773-.64-1.31Z" fill="#231f20"/><path d="M41.276,84.563v-6.443h.791v3.675l1.872-1.898h1.024l-1.784,1.731,1.964,2.936h-.976l-1.542-2.387-.558.536v1.851h-.791Z" fill="#231f20"/><path d="M45.537,84.95l.769.114c.032.237.122.41.268.519.196.146.464.22.804.22.366,0,.649-.073.848-.22s.334-.352.404-.615c.041-.161.06-.499.057-1.016-.346.408-.776.611-1.292.611-.642,0-1.138-.231-1.49-.694s-.527-1.019-.527-1.666c0-.445.081-.856.242-1.232.161-.377.395-.667.701-.872s.666-.308,1.079-.308c.551,0,1.005.223,1.362.668v-.562h.729v4.034c0,.727-.074,1.241-.222,1.545-.148.303-.383.543-.703.719-.321.176-.716.264-1.185.264-.557,0-1.006-.126-1.349-.376-.343-.251-.508-.628-.497-1.132ZM46.192,82.146c0,.612.122,1.059.365,1.34s.548.422.914.422c.363,0,.668-.14.914-.419.246-.28.369-.719.369-1.316,0-.571-.127-1.002-.38-1.292-.254-.29-.559-.436-.917-.436-.352,0-.65.143-.896.429-.246.285-.369.71-.369,1.272Z" fill="#231f20"/><path d="M54.52,86.458c-.437-.551-.806-1.195-1.107-1.935-.302-.738-.453-1.503-.453-2.294,0-.697.113-1.365.338-2.004.264-.741.671-1.479,1.222-2.215h.567c-.354.609-.589,1.044-.703,1.305-.179.405-.319.827-.422,1.267-.126.548-.189,1.099-.189,1.652,0,1.409.438,2.817,1.314,4.224h-.567Z" fill="#231f20"/><path d="M59.8,79.698l-.787.062c-.07-.311-.17-.536-.299-.677-.214-.226-.478-.339-.791-.339-.252,0-.473.07-.664.211-.249.182-.445.447-.589.796s-.218.846-.224,1.49c.19-.29.423-.506.699-.646s.564-.211.866-.211c.527,0,.976.194,1.347.582.371.389.556.891.556,1.506,0,.404-.087.78-.261,1.127-.175.348-.414.613-.719.798s-.65.277-1.037.277c-.659,0-1.197-.243-1.613-.728-.416-.485-.624-1.284-.624-2.397,0-1.245.23-2.151.69-2.717.401-.492.942-.738,1.622-.738.507,0,.922.143,1.246.427s.518.677.583,1.178ZM56.57,82.475c0,.272.058.533.174.782.115.249.277.439.485.569.208.131.426.195.655.195.334,0,.621-.135.861-.404s.36-.636.36-1.099c0-.445-.119-.796-.356-1.053-.237-.256-.536-.384-.896-.384-.357,0-.661.128-.91.384-.249.257-.374.593-.374,1.009Z" fill="#231f20"/><path d="M63.146,84.563v-1.543h-2.795v-.725l2.94-4.176h.646v4.176h.87v.725h-.87v1.543h-.791ZM63.146,82.296v-2.905l-2.017,2.905h2.017Z" fill="#231f20"/><path d="M65.97,84.563v-.901h.901v.901h-.901Z" fill="#231f20"/><path d="M67.937,81.386c0-.762.078-1.375.235-1.839.157-.465.39-.823.699-1.075.309-.252.698-.378,1.167-.378.346,0,.649.07.91.209.261.14.476.34.646.603.17.262.303.581.4.958.097.376.145.884.145,1.522,0,.756-.078,1.366-.233,1.831-.155.464-.388.823-.696,1.076-.31.254-.7.381-1.171.381-.621,0-1.109-.223-1.463-.669-.425-.536-.637-1.409-.637-2.619ZM68.75,81.386c0,1.058.124,1.762.371,2.112.248.35.553.524.917.524s.668-.176.917-.527c.247-.352.371-1.055.371-2.109,0-1.061-.124-1.765-.371-2.114-.248-.349-.556-.522-.925-.522-.363,0-.653.153-.87.461-.272.394-.409,1.118-.409,2.176Z" fill="#231f20"/><path d="M77.009,83.802v.761h-4.258c-.006-.19.025-.374.092-.55.108-.29.282-.575.521-.856.238-.281.583-.606,1.035-.976.7-.574,1.173-1.029,1.419-1.365.246-.335.369-.652.369-.951,0-.313-.112-.578-.336-.793-.225-.216-.517-.323-.877-.323-.381,0-.686.114-.914.343s-.344.545-.347.949l-.813-.083c.056-.607.265-1.069.628-1.387.363-.318.851-.478,1.463-.478.618,0,1.107.172,1.468.515s.541.768.541,1.274c0,.258-.053.512-.158.761s-.281.511-.525.786c-.245.275-.651.653-1.22,1.134-.475.398-.779.669-.914.812-.135.142-.246.284-.334.428h3.16Z" fill="#231f20"/><path d="M80.38,84.563v-6.443h.791v6.443h-.791Z" fill="#231f20"/><path d="M83.037,84.563h-.734v-6.443h.791v2.299c.334-.419.761-.628,1.279-.628.287,0,.559.058.814.173.258.116.469.278.633.488.166.209.295.462.391.758.092.296.141.612.141.949,0,.8-.199,1.418-.594,1.854-.396.438-.871.655-1.424.655s-.983-.229-1.297-.69v.585ZM83.028,82.194c0,.56.076.964.229,1.213.249.407.586.611,1.011.611.346,0,.645-.15.896-.45.252-.301.379-.748.379-1.343,0-.609-.121-1.06-.363-1.35s-.534-.435-.877-.435c-.346,0-.645.149-.896.45-.252.3-.378.734-.378,1.303Z" fill="#231f20"/><path d="M86.907,83.17l.781-.123c.045.313.167.554.367.721.201.167.481.251.842.251.363,0,.633-.074.809-.222.176-.148.264-.322.264-.521,0-.179-.078-.319-.232-.422-.109-.07-.379-.159-.809-.268-.58-.146-.982-.273-1.207-.38-.224-.107-.394-.256-.51-.444-.115-.189-.174-.397-.174-.626,0-.208.048-.401.144-.578.095-.178.225-.324.389-.441.123-.091.291-.168.503-.231.213-.062.44-.094.684-.094.366,0,.688.053.965.158.276.105.48.248.613.428.131.181.222.422.271.724l-.773.105c-.035-.24-.137-.428-.305-.562-.169-.135-.406-.202-.715-.202-.363,0-.622.06-.777.18s-.232.261-.232.422c0,.103.031.195.096.277.064.085.166.155.304.211.079.029.312.097.698.202.56.149.95.271,1.172.366.221.096.395.234.521.416s.188.407.188.677c0,.264-.076.512-.23.745-.153.232-.375.413-.666.54-.289.128-.618.191-.984.191-.605,0-1.068-.126-1.386-.378-.318-.252-.521-.626-.608-1.121Z" fill="#231f20"/><path d="M92.15,86.458h-.566c.876-1.406,1.314-2.814,1.314-4.224,0-.551-.063-1.098-.189-1.64-.1-.439-.239-.861-.418-1.266-.113-.264-.35-.703-.707-1.318h.566c.551.735.959,1.474,1.223,2.215.225.639.338,1.307.338,2.004,0,.791-.151,1.556-.455,2.294-.303.739-.672,1.384-1.105,1.935Z" fill="#231f20"/><polyline points="53.253 71.803 77.972 57.344 77.972 50.943" fill="#fff" stroke="#221f1f" stroke-linecap="round" stroke-linejoin="round" stroke-width=".766"/><polyline points="31.261 52.538 56.022 38.264 77.958 50.943 53.208 65.21" fill="#fff" stroke="#221f1f" stroke-linecap="round" stroke-linejoin="round" stroke-width=".766"/><polygon points="53.204 71.779 53.204 65.215 31.264 52.542 31.23 58.826 53.204 71.779" fill="#fff" stroke="#221f1f" stroke-linecap="round" stroke-linejoin="round" stroke-width=".766"/><path d="M12.378,35.522c-1.267,0-2.291-1.025-2.291-2.288,0-.534.275-.981.481-1.408l10.784-21.621c.416-.536,1.069-.881,1.805-.881s1.393.345,1.808.881l10.781,21.621c.247.427.478.874.478,1.408,0,1.263-1.024,2.288-2.289,2.288H12.378Z" fill="#f79320" fill-rule="evenodd"/><path d="M24.779,30.494c0,.896-.726,1.621-1.623,1.621s-1.622-.725-1.622-1.621.726-1.623,1.622-1.623,1.623.725,1.623,1.623Z" fill="#fff" fill-rule="evenodd"/><path d="M23.156,16.934c-.833,0-1.505.676-1.505,1.503l.498,8.121c0,.556.453,1.001,1.007,1.001.552,0,1-.445,1-1.001l.506-8.121c0-.827-.674-1.503-1.506-1.503Z" fill="#fff" fill-rule="evenodd"/></svg>